<?xml version="1.0" encoding="UTF-8" standalone="no"?>
<!-- Created with Inkscape (http://www.inkscape.org/) -->

<svg
   width="217.31651mm"
   height="51.999996mm"
   viewBox="0 0 821.35376 196.53543"
   version="1.1"
   id="svg1"
   xml:space="preserve"
   xmlns="http://www.w3.org/2000/svg"
   xmlns:svg="http://www.w3.org/2000/svg"><defs
     id="defs1"><linearGradient
       id="a9047b8db-0a8e-4972-9728-7b9d89780f7f"
       x1="96.669998"
       y1="193.98"
       x2="96.669998"
       gradientUnits="userSpaceOnUse"
       gradientTransform="matrix(1.0165585,0,0,1.0132495,138.75186,267.97048)"><stop
         offset="0"
         stop-color="#30f9ce"
         id="stop1-6"
         style="stop-color:#30ffce;stop-opacity:1;" /><stop
         offset=".49"
         stop-color="#d630ca"
         id="stop2-6" /><stop
         offset=".99"
         stop-color="#f9d342"
         id="stop3-0" /></linearGradient></defs><g
     id="layer1"
     transform="translate(-138.75314,-267.97134)"><text
       xml:space="preserve"
       style="font-style:normal;font-variant:normal;font-weight:100;font-stretch:normal;font-size:133.142px;font-family:Nexa;-inkscape-font-specification:'Nexa, Thin';font-variant-ligatures:normal;font-variant-caps:normal;font-variant-numeric:normal;font-variant-east-asian:normal;fill:#f0f8ff;fill-opacity:1;stroke-width:11.0951"
       x="337.15265"
       y="388.90051"
       id="text3"
       transform="scale(1.0241252,0.97644311)"><tspan
         id="tspan3"
         x="337.15265"
         y="388.90051"
         style="font-style:normal;font-variant:normal;font-weight:100;font-stretch:normal;font-size:133.142px;font-family:Nexa;-inkscape-font-specification:'Nexa, Thin';font-variant-ligatures:normal;font-variant-caps:normal;font-variant-numeric:normal;font-variant-east-asian:normal;fill:#f0f8ff;fill-opacity:1;stroke-width:11.0951">NextLevel</tspan></text><text
       xml:space="preserve"
       style="font-style:normal;font-variant:normal;font-weight:100;font-stretch:normal;font-size:52.8543px;font-family:Nexa;-inkscape-font-specification:'Nexa, Thin';font-variant-ligatures:normal;font-variant-caps:normal;font-variant-numeric:normal;font-variant-east-asian:normal;fill:#f0f8ff;fill-opacity:1;stroke-width:0.371792"
       x="389.24149"
       y="462.05298"
       id="text4"
       transform="scale(1.0634246,0.94035816)"><tspan
         id="tspan4"
         x="389.24149"
         y="462.05298"
         style="font-style:normal;font-variant:normal;font-weight:100;font-stretch:normal;font-size:52.8543px;font-family:Nexa;-inkscape-font-specification:'Nexa, Thin';font-variant-ligatures:normal;font-variant-caps:normal;font-variant-numeric:normal;font-variant-east-asian:normal;fill:#f0f8ff;fill-opacity:1;stroke-width:0.371792">Gestão de Tráego</tspan></text><path
       d="m 266.5536,326.64777 c 21.5917,0.19252 38.62922,7.70069 52.66789,22.01791 4.50336,4.57989 8.87456,9.3219 13.65238,13.59781 3.38514,3.03975 3.04968,4.99532 0,8.106 q -39.64578,39.22288 -79.07808,78.72948 -6.83128,6.78877 -13.66255,13.58768 c -1.38252,1.32736 -2.77521,2.8675 -4.70667,0.841 -11.34479,-11.73343 -24.68204,-21.80513 -31.42182,-37.38891 -1.41302,-3.25253 -4.28988,-6.83944 -3.19199,-9.86905 1.32152,-3.6781 5.95703,-1.35776 9.01687,-1.57054 24.73287,-1.76305 44.8099,-12.04754 59.97695,-31.64378 1.52484,-2.0265 3.39531,-2.39127 5.71306,-2.56352 7.02442,-0.51676 11.78191,-4.41777 13.21526,-10.56819 a 14.59778,14.550263 0 0 0 -23.54349,-14.81371 c -4.58468,3.88074 -6.59747,10.8215 -3.70028,16.53623 2.11445,4.17459 1.01656,6.73811 -1.72815,9.77786 -27.33525,30.90411 -73.61916,32.6165 -103.12986,3.72876 -5.43858,-5.36009 -10.71452,-10.79111 -16.2141,-16.10054 -2.2161,-2.12782 -2.22627,-3.63756 0,-5.82618 q 46.9345,-46.61961 93.75719,-93.43174 c 1.73831,-1.72253 3.18182,-2.8371 5.41825,-0.4661 7.01426,7.31566 14.4148,14.28682 21.27657,21.74434 5.41826,5.89711 9.14903,12.97972 11.87341,20.4879 2.09411,5.6742 1.62649,6.43414 -4.51352,6.38348 -23.38085,-0.18239 -42.78695,8.63288 -58.73675,25.44269 a 37.07389,36.953211 0 0 0 -3.91375,4.63055 7.7461761,7.7209615 0 0 1 -6.69912,3.68823 c -7.11591,0.36477 -11.87341,4.75214 -13.44907,11.6625 a 14.790926,14.742781 0 0 0 6.61779,15.19874 15.299206,15.249405 0 0 0 17.13918,-1.16523 c 4.63551,-3.90101 6.69912,-11.39906 3.65961,-17.10366 -2.03312,-3.86048 -0.92507,-6.17068 1.48417,-8.87606 14.28265,-16.02961 32.06226,-24.40918 52.22062,-24.77395 z m 3.33431,13.88152 h -6.5873 c -1.20971,0 -2.61256,0.21278 -2.71421,1.69212 -0.12199,1.96571 1.60616,1.88465 2.89719,1.93531 2.86669,0.10133 5.74355,0 8.62041,0.0811 13.00179,0.25331 22.17115,7.79189 23.88913,19.63678 1.51467,10.40607 -5.08279,19.48478 -17.15951,23.56818 -1.31136,0.44583 -3.53762,0.38503 -3.04967,2.54326 0.42695,1.9353 2.30758,1.53 3.82226,1.27669 12.47317,-2.0265 22.36428,-16.21199 20.08719,-28.58377 -2.8057,-14.66172 -12.91029,-22.1699 -29.80549,-22.14963 z m -66.27962,51.05764 h 7.39038 c 1.23004,0 2.52107,-0.35464 2.34825,-1.9657 -0.13215,-1.2159 -1.26053,-1.48948 -2.30759,-1.50975 -3.20215,-0.0608 -6.41448,0 -9.6268,-0.10132 -11.83275,-0.17225 -21.57138,-7.74123 -23.13688,-18.00544 -1.76881,-11.60171 4.52369,-21.15665 16.45809,-24.94621 1.5655,-0.49649 3.92391,-0.56742 3.35464,-2.8371 -0.56927,-2.26968 -2.78537,-1.1855 -4.30004,-0.84099 -9.393,2.14809 -15.62451,8.00467 -18.35905,17.04285 -2.73454,9.03819 -1.09788,17.742 5.49958,24.93607 6.01803,6.5456 13.73371,8.9166 22.67942,8.22759 z"
       fill="url(#a9047b8db-0a8e-4972-9728-7b9d89780f7f)"
       id="path3"
       style="fill:url(#a9047b8db-0a8e-4972-9728-7b9d89780f7f);stroke-width:1.01491" /></g></svg>
